# xmcd
#
# Track frame offsets:
#	150
#	14457
#	34140
#	48457
#	61717
#	76345
#	92362
#	105650
#	121310
#	134177
#	146227
#	158707
#	173327
#	185440
#	201787
#	216402
#	234020
#	244487
#	262137
#	275190
#
# Disc length: 3829 seconds
#
# Revision: 1
# Processed by: cddbd v1.5.1PL0 Copyright (c) Steve Scherf et al.
# Submitted via: EasyCDDAExtractor 7.0.6.1
#
DISCID=230ef314
DTITLE=Various Artist - Country Stars Live In Concert D2
DYEAR=1900
DGENRE=Country
TTITLE0=Sweethearts Of Rodeo - Chains Of Gold
TTITLE1=Bellamy Brothers - If I Said You Had A Beautiful Body Would You Hold I
TTITLE1=t Against Me
TTITLE2=Earl Thomas Conley - Love Don't Care
TTITLE3=Patty Loveless - It's What You Don't Do
TTITLE4=Nitty Gritty Dirt Band - Home Again in my Heart
TTITLE5=Lorrie Morgan - You're Getting To Me Again
TTITLE6=Kathy Mattea - Bail And Chain
TTITLE7=Lee greenwood - Fools Gold
TTITLE8=Ronnie McDowell - Wandering Eyes
TTITLE9=Forester Sisters - Dixie Man
TTITLE10=Kieran Kane - You're The Best
TTITLE11=Eddy Raven - Who Do You Know In California
TTITLE12=Sweethearts Of The Rodeo - Hey Doll Baby
TTITLE13=Bellamy Brothers - Redneck Girl
TTITLE14=Kathy Mattea - Heart Of The Country
TTITLE15=Earl Thomas Conely - Somewhere Between Right And Wrong
TTITLE16=Forester Sisters - Just In Case
TTITLE17=Nitty Gritty Dirt Band - Partners And Friends
TTITLE18=Eddy Raven - I Should've Been Called
TTITLE19=You've Got A Good Love Comin'
EXTD=
EXTT0=
EXTT1=
EXTT2=
EXTT3=
EXTT4=
EXTT5=
EXTT6=
EXTT7=
EXTT8=
EXTT9=
EXTT10=
EXTT11=
EXTT12=
EXTT13=
EXTT14=
EXTT15=
EXTT16=
EXTT17=
EXTT18=
EXTT19=
PLAYORDER=
